<svg width="2vw" xmlns="http://www.w3.org/2000/svg" viewBox="0 0 498.04 872">
    <path d="M351.76,434.34c-3-2.61-5.83-4.72-8.3-7.17Q181.12,266.07,18.82,104.89C-8.28,78-5.75,35,24.07,12.35a60.45,60.45,0,0,1,79.08,5.08c29,28.31,57.55,57,86.29,85.51q143.7,142.64,287.47,285.22C489.55,400.68,497.54,415,498,433c.49,18.34-6.46,33.63-19.34,46.54Q434,524.26,389.53,569.23,248.82,711,108.09,852.69c-27.83,28-71.8,25.16-94.13-6.08-17.45-24.4-14.52-57,7.26-79Q102,686.16,182.87,604.78L347.7,438.72C348.74,437.67,349.72,436.54,351.76,434.34Z"/>
</svg>