<svg width="2vw" xmlns="http://www.w3.org/2000/svg" viewBox="0 0 498.04 872">
    <path d="M146.28,434.34c3-2.61,5.83-4.72,8.3-7.17q162.36-161.1,324.64-322.28C506.32,78,503.79,35,474,12.35a60.45,60.45,0,0,0-79.08,5.08c-28.95,28.31-57.55,57-86.29,85.51Q164.9,245.58,21.13,388.16C8.49,400.68.5,415,0,433c-.48,18.34,6.46,33.63,19.35,46.54Q64,524.26,108.51,569.23,249.22,711,390,852.69c27.83,28,71.81,25.16,94.13-6.08,17.45-24.4,14.52-57-7.26-79Q396,686.16,315.17,604.78L150.34,438.72C149.3,437.67,148.32,436.54,146.28,434.34Z"/>
</svg>